<mxfile host="app.diagrams.net" agent="Mozilla/5.0 (Macintosh; Intel Mac OS X 10_15_7) AppleWebKit/537.36 (KHTML, like Gecko) Chrome/130.0.0.0 Safari/537.36" version="24.8.4">
  <diagram id="7gcUSTIZ7YSJ5vT40chW" name="Page-1">
    <mxGraphModel dx="3213" dy="1372" grid="1" gridSize="10" guides="1" tooltips="1" connect="1" arrows="1" fold="1" page="1" pageScale="1" pageWidth="1169" pageHeight="827" background="#D5E8D4" math="0" shadow="0">
      <root>
        <mxCell id="0" />
        <mxCell id="1" parent="0" />
        <mxCell id="YMcBfUqQcQKImcyqhzXh-8" style="edgeStyle=orthogonalEdgeStyle;rounded=0;orthogonalLoop=1;jettySize=auto;html=1;" parent="1" source="YMcBfUqQcQKImcyqhzXh-1" target="YMcBfUqQcQKImcyqhzXh-4" edge="1">
          <mxGeometry relative="1" as="geometry" />
        </mxCell>
        <mxCell id="YMcBfUqQcQKImcyqhzXh-1" value="Language Model" style="sketch=0;points=[[0,0,0],[0.25,0,0],[0.5,0,0],[0.75,0,0],[1,0,0],[0,1,0],[0.25,1,0],[0.5,1,0],[0.75,1,0],[1,1,0],[0,0.25,0],[0,0.5,0],[0,0.75,0],[1,0.25,0],[1,0.5,0],[1,0.75,0]];outlineConnect=0;fontColor=#232F3E;fillColor=#01A88D;strokeColor=#ffffff;dashed=0;verticalLabelPosition=bottom;verticalAlign=top;align=center;html=1;fontSize=12;fontStyle=0;aspect=fixed;shape=mxgraph.aws4.resourceIcon;resIcon=mxgraph.aws4.augmented_ai;flipH=0;" parent="1" vertex="1">
          <mxGeometry x="611.5" y="201.25" width="105" height="105" as="geometry" />
        </mxCell>
        <mxCell id="tnJxuz6FXQ8Jxzn_mdE_-2" style="edgeStyle=orthogonalEdgeStyle;rounded=0;orthogonalLoop=1;jettySize=auto;html=1;" edge="1" parent="1" source="YMcBfUqQcQKImcyqhzXh-2" target="tnJxuz6FXQ8Jxzn_mdE_-1">
          <mxGeometry relative="1" as="geometry" />
        </mxCell>
        <mxCell id="YMcBfUqQcQKImcyqhzXh-2" value="Webapp" style="verticalLabelPosition=bottom;aspect=fixed;html=1;shape=mxgraph.salesforce.web;flipH=0;" parent="1" vertex="1">
          <mxGeometry x="-70" y="216.25" width="90" height="75" as="geometry" />
        </mxCell>
        <mxCell id="YMcBfUqQcQKImcyqhzXh-7" style="edgeStyle=orthogonalEdgeStyle;rounded=0;orthogonalLoop=1;jettySize=auto;html=1;" parent="1" source="YMcBfUqQcQKImcyqhzXh-3" target="YMcBfUqQcQKImcyqhzXh-1" edge="1">
          <mxGeometry relative="1" as="geometry">
            <Array as="points">
              <mxPoint x="455" y="250" />
              <mxPoint x="455" y="250" />
            </Array>
          </mxGeometry>
        </mxCell>
        <mxCell id="YMcBfUqQcQKImcyqhzXh-3" value="Audio to text&lt;span style=&quot;background-color: initial;&quot;&gt;&amp;nbsp;&lt;/span&gt;&lt;div&gt;&lt;div&gt;Convertor&lt;div&gt;&lt;br&gt;&lt;/div&gt;&lt;/div&gt;&lt;/div&gt;" style="shadow=0;dashed=0;html=1;strokeColor=none;fillColor=#4495D1;labelPosition=center;verticalLabelPosition=bottom;verticalAlign=top;align=center;outlineConnect=0;shape=mxgraph.veeam.audio_file;flipH=0;" parent="1" vertex="1">
          <mxGeometry x="410" y="203.75" width="90" height="102.5" as="geometry" />
        </mxCell>
        <mxCell id="YMcBfUqQcQKImcyqhzXh-9" style="edgeStyle=orthogonalEdgeStyle;rounded=0;orthogonalLoop=1;jettySize=auto;html=1;" parent="1" source="YMcBfUqQcQKImcyqhzXh-4" target="YMcBfUqQcQKImcyqhzXh-5" edge="1">
          <mxGeometry relative="1" as="geometry" />
        </mxCell>
        <mxCell id="YMcBfUqQcQKImcyqhzXh-4" value="&lt;div&gt;&lt;div&gt;&lt;div&gt;Text to Audio&amp;nbsp;&lt;/div&gt;&lt;div&gt;Convertor&lt;/div&gt;&lt;/div&gt;&lt;/div&gt;" style="shadow=0;dashed=0;html=1;strokeColor=none;fillColor=#4495D1;labelPosition=center;verticalLabelPosition=bottom;verticalAlign=top;align=center;outlineConnect=0;shape=mxgraph.veeam.audio_file;flipH=0;" parent="1" vertex="1">
          <mxGeometry x="817" y="200" width="83" height="110" as="geometry" />
        </mxCell>
        <mxCell id="YMcBfUqQcQKImcyqhzXh-5" value="Webapp" style="verticalLabelPosition=bottom;aspect=fixed;html=1;shape=mxgraph.salesforce.web;flipH=0;" parent="1" vertex="1">
          <mxGeometry x="1010" y="201.25" width="129" height="107.5" as="geometry" />
        </mxCell>
        <mxCell id="tnJxuz6FXQ8Jxzn_mdE_-3" style="edgeStyle=orthogonalEdgeStyle;rounded=0;orthogonalLoop=1;jettySize=auto;html=1;" edge="1" parent="1" source="tnJxuz6FXQ8Jxzn_mdE_-1" target="YMcBfUqQcQKImcyqhzXh-3">
          <mxGeometry relative="1" as="geometry" />
        </mxCell>
        <mxCell id="tnJxuz6FXQ8Jxzn_mdE_-1" value="Generate Audio file from user" style="html=1;whiteSpace=wrap;strokeColor=none;fillColor=#0079D6;labelPosition=center;verticalLabelPosition=middle;verticalAlign=top;align=center;fontSize=12;outlineConnect=0;spacingTop=-6;fontColor=#FFFFFF;sketch=0;shape=mxgraph.sitemap.audio;" vertex="1" parent="1">
          <mxGeometry x="120" y="201.25" width="160" height="105" as="geometry" />
        </mxCell>
        <mxCell id="tnJxuz6FXQ8Jxzn_mdE_-4" value="Record user and generate a audio file&lt;div&gt;&lt;br&gt;&lt;/div&gt;" style="text;html=1;align=center;verticalAlign=middle;whiteSpace=wrap;rounded=0;" vertex="1" parent="1">
          <mxGeometry x="140" y="326.25" width="120" height="60" as="geometry" />
        </mxCell>
        <mxCell id="tnJxuz6FXQ8Jxzn_mdE_-5" value="Completed portion" style="swimlane;startSize=0;strokeColor=#000000;fillColor=#FFFF99;shadow=1;" vertex="1" parent="1">
          <mxGeometry x="-125" y="155" width="475" height="235" as="geometry" />
        </mxCell>
      </root>
    </mxGraphModel>
  </diagram>
</mxfile>
